<svg width="50" height="50" viewBox="0 0 50 50" fill="none" xmlns="http://www.w3.org/2000/svg">
<g clip-path="url(#clip0_1142_669)">
<path d="M25 16.9283C20.5559 16.9283 16.9291 20.5551 16.9291 24.9992C16.9291 29.4434 20.5559 33.0701 25 33.0701C29.4442 33.0701 33.0709 29.4434 33.0709 24.9992C33.0709 20.5551 29.4442 16.9283 25 16.9283ZM49.2067 24.9992C49.2067 21.6571 49.237 18.3451 49.0493 15.009C48.8616 11.134 47.9776 7.69496 45.144 4.86137C42.3043 2.02172 38.8713 1.14379 34.9963 0.956098C31.6541 0.768403 28.3422 0.798676 25.0061 0.798676C21.6639 0.798676 18.352 0.768403 15.0159 0.956098C11.1409 1.14379 7.7018 2.02777 4.86821 4.86137C2.02856 7.70102 1.15063 11.134 0.962934 15.009C0.775238 18.3512 0.805512 21.6631 0.805512 24.9992C0.805512 28.3354 0.775238 31.6533 0.962934 34.9895C1.15063 38.8645 2.03461 42.3035 4.86821 45.1371C7.70786 47.9768 11.1409 48.8547 15.0159 49.0424C18.3581 49.2301 21.67 49.1998 25.0061 49.1998C28.3483 49.1998 31.6602 49.2301 34.9963 49.0424C38.8713 48.8547 42.3104 47.9707 45.144 45.1371C47.9836 42.2975 48.8616 38.8645 49.0493 34.9895C49.243 31.6533 49.2067 28.3414 49.2067 24.9992ZM25 37.4174C18.128 37.4174 12.5819 31.8713 12.5819 24.9992C12.5819 18.1272 18.128 12.5811 25 12.5811C31.8721 12.5811 37.4182 18.1272 37.4182 24.9992C37.4182 31.8713 31.8721 37.4174 25 37.4174ZM37.9268 14.9727C36.3223 14.9727 35.0266 13.677 35.0266 12.0725C35.0266 10.468 36.3223 9.17231 37.9268 9.17231C39.5313 9.17231 40.827 10.468 40.827 12.0725C40.8275 12.4535 40.7528 12.8308 40.6072 13.1829C40.4616 13.535 40.248 13.8549 39.9786 14.1243C39.7092 14.3937 39.3893 14.6073 39.0372 14.7529C38.6851 14.8985 38.3078 14.9732 37.9268 14.9727Z" fill="#E5E7EB"/>
</g>
<defs>
<clipPath id="clip0_1142_669">
<rect width="50" height="50" fill="white"/>
</clipPath>
</defs>
</svg>
