<svg width="203" height="128" viewBox="0 0 203 128" fill="none" xmlns="http://www.w3.org/2000/svg">
<g clip-path="url(#clip0_1142_676)">
<path d="M52.9105 120.695L43.226 121.091C41.992 115.428 40.6258 111.76 39.1274 110.085C37.651 108.432 34.6212 107.606 30.0379 107.606C24.2206 107.606 19.3508 105.568 15.4285 101.491C11.5062 97.3926 9.54507 92.1923 9.54507 85.8902C9.54507 79.1254 11.6164 73.5174 15.759 69.0663C19.9016 64.6151 25.0248 62.3896 31.1286 62.3896C36.9459 62.3896 41.8157 64.4278 45.738 68.5044C49.6603 72.5809 51.6214 77.7812 51.6214 84.1053C51.6214 88.6446 50.6298 92.7321 48.6466 96.3679C46.6635 99.9817 43.9752 102.78 40.5817 104.763V105.292C44.1735 105.733 46.8397 106.989 48.5805 109.06C50.3213 111.154 51.7646 115.032 52.9105 120.695ZM42.4988 85.0639C42.4988 80.4585 41.3089 76.7235 38.9291 73.8589C36.5493 70.9943 33.6516 69.562 30.2362 69.562C27.019 69.562 24.2867 71.0054 22.0391 73.892C19.7915 76.7786 18.6677 80.4254 18.6677 84.8325C18.6677 89.4158 19.8576 93.1508 22.2374 96.0374C24.6392 98.902 27.5369 100.334 30.9303 100.334C34.1474 100.334 36.8798 98.891 39.1274 96.0044C41.375 93.0957 42.4988 89.4489 42.4988 85.0639Z" fill="#846D35"/>
<path d="M87.4177 106.383L79.6833 106.647C79.3307 105.457 79.1544 104.51 79.1544 103.805H78.6256C75.739 106.185 72.3676 107.375 68.5114 107.375C64.8756 107.375 62.1322 106.427 60.2813 104.532C58.4523 102.615 57.5379 98.8028 57.5379 93.0957C57.5379 92.4126 57.5489 91.4541 57.5709 90.2201C57.615 88.9861 57.637 87.9064 57.637 86.9809C57.637 84.535 57.4277 80.6348 57.009 75.2802L66.2308 74.9497C65.8782 79.1804 65.7019 83.1909 65.7019 86.9809C65.7019 92.3796 66.0986 96.0154 66.8918 97.8884C67.7071 99.7614 69.2937 100.698 71.6514 100.698C74.2296 100.698 76.4551 100.081 78.3281 98.8469C78.3281 87.2564 78.1959 79.3898 77.9315 75.2471L86.8558 74.9497C86.6354 79.1143 86.5252 84.513 86.5252 91.1456C86.5252 96.0594 86.8227 101.139 87.4177 106.383ZM116.306 75.0158L114.389 82.7502C112.758 82.0891 111.106 81.7586 109.431 81.7586C106.192 81.7586 104.054 83.2129 103.019 86.1215C103.019 94.9136 103.085 101.678 103.217 106.416H94.4249C94.7995 99.7834 94.9868 94.3627 94.9868 90.154C94.9868 84.9096 94.4359 79.9407 93.3341 75.2471L101.763 74.3217C102.137 76.7455 102.325 78.1668 102.325 78.5855H102.853C104.881 75.4785 107.58 73.925 110.951 73.925C112.538 73.925 114.323 74.2886 116.306 75.0158ZM132.237 65.0008C132.237 70.774 128.723 76.8888 121.694 83.3451L118.752 80.8331C121.749 77.5058 123.247 73.881 123.247 69.9587C121.572 68.9451 120.735 67.3255 120.735 65.0999C120.735 63.4913 121.286 62.1031 122.388 60.9352C123.511 59.7453 125.065 59.1504 127.048 59.1504C128.679 59.1504 129.946 59.7453 130.849 60.9352C131.775 62.1252 132.237 63.4803 132.237 65.0008ZM164.563 106.383L156.763 106.647C156.41 105.722 156.234 104.885 156.234 104.135H155.804C153.38 106.207 150.108 107.242 145.987 107.242C143.233 107.242 140.941 106.482 139.112 104.962C137.305 103.419 136.402 101.381 136.402 98.8469C136.402 95.4975 137.812 92.7542 140.633 90.6167C143.475 88.4793 148.444 87.3445 155.54 87.2123C155.584 86.8157 155.606 86.4411 155.606 86.0885C155.606 83.7087 155.033 82.1442 153.887 81.395C152.741 80.6237 150.637 80.2381 147.574 80.2381C144.247 80.2381 140.996 80.6788 137.823 81.5602L138.55 75.4785C141.547 74.4429 145.778 73.925 151.243 73.925C155.231 73.925 158.305 74.7624 160.465 76.437C162.646 78.1117 163.737 81.0424 163.737 85.2291C163.737 86.1546 163.693 87.8403 163.605 90.2862C163.538 92.7321 163.505 94.3627 163.505 95.178C163.505 99.7393 163.858 103.474 164.563 106.383ZM155.738 99.508C155.606 96.5332 155.54 93.9661 155.54 91.8066C148.026 91.8066 144.269 93.7127 144.269 97.5248C144.269 100.147 145.921 101.458 149.227 101.458C151.827 101.458 153.997 100.808 155.738 99.508ZM200.789 106.416H191.997C192.482 100.841 192.724 95.2001 192.724 89.4929C192.724 86.0334 192.206 83.6866 191.171 82.4527C190.157 81.2187 188.604 80.6017 186.51 80.6017C183.998 80.6017 181.618 81.4611 179.371 83.1798C179.481 91.7736 179.536 99.519 179.536 106.416H170.645C171.041 99.519 171.24 94.0983 171.24 90.154C171.24 84.8876 170.7 79.9186 169.62 75.2471L178.082 74.3217L178.644 77.8253H179.172C182.191 75.2251 185.662 73.925 189.584 73.925C192.978 73.925 195.688 74.7293 197.715 76.3379C199.764 77.9244 200.789 80.8661 200.789 85.163C200.789 85.802 200.756 86.6614 200.69 87.7411C200.646 88.7988 200.624 89.8896 200.624 91.0134C200.624 93.9881 200.679 99.1223 200.789 106.416Z" fill="white"/>
<rect x="23.2461" y="44" width="12.1846" height="12.1846" rx="6.09231" fill="#846D35"/>
</g>
<defs>
<clipPath id="clip0_1142_676">
<rect width="203" height="128" fill="white"/>
</clipPath>
</defs>
</svg>
