<svg width="42" height="55" viewBox="0 0 42 55" fill="none" xmlns="http://www.w3.org/2000/svg">
<g clip-path="url(#clip0_1142_671)">
<rect x="15.5586" y="3" width="7.91932" height="7.91932" rx="3.95966" fill="#846D35"/>
<path d="M34.8393 52.8L28.5449 53.0578C27.7429 49.3771 26.8549 46.9925 25.881 45.9041C24.9215 44.83 22.9522 44.2929 19.9733 44.2929C16.1924 44.2929 13.0273 42.9681 10.478 40.3186C7.92879 37.6548 6.65416 34.2749 6.65416 30.1789C6.65416 25.7821 8.0004 22.1372 10.6929 19.2443C13.3854 16.3513 16.7151 14.9048 20.6823 14.9048C24.4632 14.9048 27.6283 16.2295 30.1775 18.8791C32.7268 21.5286 34.0014 24.9085 34.0014 29.0188C34.0014 31.9691 33.357 34.6258 32.068 36.9888C30.7791 39.3376 29.0318 41.1565 26.8263 42.4454V42.7891C29.1607 43.0756 30.8936 43.8919 32.025 45.2381C33.1565 46.5987 34.0945 49.1193 34.8393 52.8ZM28.0723 29.6418C28.0723 26.6486 27.2989 24.221 25.7521 22.3592C24.2054 20.4974 22.3221 19.5665 20.1022 19.5665C18.0113 19.5665 16.2354 20.5046 14.7746 22.3807C13.3137 24.2568 12.5833 26.6271 12.5833 29.4914C12.5833 32.4703 13.3567 34.8979 14.9035 36.774C16.4645 38.6358 18.3478 39.5667 20.5534 39.5667C22.6443 39.5667 24.4202 38.6287 25.881 36.7525C27.3418 34.8621 28.0723 32.4918 28.0723 29.6418Z" fill="#846D35"/>
</g>
<defs>
<clipPath id="clip0_1142_671">
<rect width="42" height="55" fill="white"/>
</clipPath>
</defs>
</svg>
