<svg width="94" height="124" viewBox="0 0 94 124" fill="none" xmlns="http://www.w3.org/2000/svg">
<g clip-path="url(#clip0_1142_671)">
<rect x="34.8213" y="6.71484" width="17.7242" height="17.7242" rx="8.8621" fill="#846D35"/>
<path d="M77.9735 117.364L63.8861 117.941C62.0911 109.704 60.1038 104.367 57.9242 101.931C55.7766 99.5266 51.3693 98.3246 44.7022 98.3246C36.2401 98.3246 29.1563 95.3597 23.4508 89.4298C17.7453 83.4679 14.8926 75.9033 14.8926 66.7361C14.8926 56.8957 17.9056 48.7381 23.9316 42.2634C29.9577 35.7886 37.41 32.5512 46.2888 32.5512C54.7509 32.5512 61.8347 35.5161 67.5402 41.446C73.2457 47.3759 76.0984 54.9405 76.0984 64.1398C76.0984 70.7427 74.656 76.6886 71.7712 81.9774C68.8864 87.2342 64.9759 91.305 60.0397 94.1898V94.959C65.2644 95.6001 69.1428 97.4271 71.6751 100.44C74.2073 103.485 76.3068 109.127 77.9735 117.364ZM62.8283 65.5341C62.8283 58.8349 61.0975 53.4019 57.6357 49.235C54.1739 45.068 49.9589 42.9846 44.9907 42.9846C40.3109 42.9846 36.3363 45.0841 33.0668 49.283C29.7974 53.482 28.1627 58.7869 28.1627 65.1975C28.1627 71.8646 29.8935 77.2976 33.3553 81.4966C36.8491 85.6636 41.0641 87.747 46.0003 87.747C50.6801 87.747 54.6547 85.6475 57.9242 81.4486C61.1936 77.2175 62.8283 71.9127 62.8283 65.5341Z" fill="#846D35"/>
</g>
<defs>
<clipPath id="clip0_1142_671">
<rect width="94" height="123.095" fill="white"/>
</clipPath>
</defs>
</svg>
